<svg width="19" height="13" viewBox="0 0 19 13" fill="none" xmlns="http://www.w3.org/2000/svg">
<path d="M16.8009 8.87658C16.2536 5.66253 13.7481 3.10875 10.5586 2.49016C10.5637 2.44184 10.5715 2.39321 10.5715 2.34518C10.5715 1.51245 9.89406 0.834961 9.06132 0.834961C8.22859 0.834961 7.5511 1.51245 7.5511 2.34518C7.5511 2.39321 7.55865 2.44184 7.56409 2.49016C4.3745 3.10875 1.86905 5.66253 1.32174 8.87658C0.690473 9.2339 0 9.75976 0 10.3497C0 11.8855 4.68531 12.917 9.06132 12.917C13.4373 12.917 18.1226 11.8855 18.1226 10.3497C18.1226 9.75976 17.4322 9.2339 16.8009 8.87658ZM8.157 2.39743C8.15579 2.37992 8.15519 2.3624 8.15519 2.34548C8.15519 1.8459 8.56174 1.43935 9.06132 1.43935C9.5609 1.43935 9.96745 1.8459 9.96745 2.34548C9.96745 2.3627 9.96685 2.37992 9.96564 2.39743C9.95144 2.39592 9.93725 2.39532 9.92335 2.39381C9.81945 2.38233 9.71494 2.37418 9.60983 2.36693C9.57117 2.36421 9.53281 2.36028 9.49415 2.35817C9.35098 2.35032 9.20691 2.34579 9.06162 2.34579C8.91634 2.34579 8.77226 2.35032 8.6291 2.35817C8.59043 2.36028 8.55207 2.36421 8.51341 2.36693C8.4083 2.37418 8.30379 2.38263 8.19989 2.39381C8.18539 2.39532 8.1712 2.39562 8.157 2.39743ZM7.97366 3.03112C8.13586 3.00696 8.29896 2.98944 8.46267 2.97615C8.4962 2.97343 8.52972 2.97102 8.56325 2.9686C8.89489 2.94625 9.22805 2.94625 9.55969 2.9686C9.59322 2.97102 9.62675 2.97343 9.66027 2.97615C9.82398 2.98944 9.98709 3.00696 10.1493 3.03112C13.296 3.50684 15.7845 6.0129 16.2361 9.16745C16.25 9.26441 16.2611 9.36166 16.2711 9.45892C16.2744 9.49245 16.279 9.52567 16.282 9.5592C16.2938 9.69301 16.3025 9.82681 16.3068 9.96062C11.5616 11.0604 6.5616 11.0604 1.81649 9.96062C1.82102 9.82681 1.82948 9.69301 1.84126 9.5592C1.84428 9.52567 1.84851 9.49245 1.85213 9.45892C1.8621 9.36136 1.87328 9.2641 1.88717 9.16745C2.33842 6.0129 4.82697 3.50654 7.97366 3.03112ZM9.06132 12.3129C3.89758 12.3129 0.604088 11.0235 0.604088 10.3497C0.604088 10.234 0.747257 9.97904 1.22751 9.64649C1.2263 9.66371 1.2269 9.68062 1.22569 9.69784C1.21543 9.86336 1.20818 10.0301 1.20818 10.1986V10.4366L1.43984 10.4925C3.93291 11.0906 6.49727 11.3902 9.06132 11.3902C11.6254 11.3902 14.1897 11.0909 16.6828 10.4925L16.9145 10.4366V10.1986C16.9145 10.0301 16.9072 9.86366 16.8969 9.69784C16.8957 9.68062 16.8963 9.66371 16.8951 9.64649C17.3754 9.97904 17.5186 10.234 17.5186 10.3497C17.5186 11.0235 14.2251 12.3129 9.06132 12.3129Z" fill="#333333"/>
</svg>
