<svg width="13" height="13" viewBox="0 0 13 13" fill="none" xmlns="http://www.w3.org/2000/svg">
<path fill-rule="evenodd" clip-rule="evenodd" d="M8.83892 11.0662C8.75943 11.0662 8.67944 11.0476 8.60599 11.0094L6.04077 9.66915L3.47605 11.0094C3.30601 11.0974 3.10075 11.0823 2.94681 10.9696C2.79186 10.8569 2.71489 10.6663 2.74759 10.4776L3.23608 7.64625L1.16338 5.64147C1.02554 5.50815 0.975732 5.30792 1.03459 5.1248C1.09345 4.94268 1.25092 4.80937 1.44108 4.7822L4.30866 4.36565L5.59051 1.78685C5.76055 1.44475 6.32149 1.44475 6.49153 1.78685L7.77339 4.36565L10.641 4.7822C10.8311 4.80937 10.9886 4.94268 11.0475 5.1248C11.1063 5.30792 11.0565 5.50815 10.9187 5.64147L8.84596 7.64625L9.33446 10.4776C9.36716 10.6663 9.28968 10.8569 9.13523 10.9696C9.0477 11.034 8.94356 11.0662 8.83892 11.0662Z" fill="black"/>
<mask id="mask0" mask-type="alpha" maskUnits="userSpaceOnUse" x="1" y="1" width="11" height="11">
<path fill-rule="evenodd" clip-rule="evenodd" d="M8.83892 11.0662C8.75943 11.0662 8.67944 11.0476 8.60599 11.0094L6.04077 9.66915L3.47605 11.0094C3.30601 11.0974 3.10075 11.0823 2.94681 10.9696C2.79186 10.8569 2.71489 10.6663 2.74759 10.4776L3.23608 7.64625L1.16338 5.64147C1.02554 5.50815 0.975732 5.30792 1.03459 5.1248C1.09345 4.94268 1.25092 4.80937 1.44108 4.7822L4.30866 4.36565L5.59051 1.78685C5.76055 1.44475 6.32149 1.44475 6.49153 1.78685L7.77339 4.36565L10.641 4.7822C10.8311 4.80937 10.9886 4.94268 11.0475 5.1248C11.1063 5.30792 11.0565 5.50815 10.9187 5.64147L8.84596 7.64625L9.33446 10.4776C9.36716 10.6663 9.28968 10.8569 9.13523 10.9696C9.0477 11.034 8.94356 11.0662 8.83892 11.0662Z" fill="white"/>
</mask>
<g mask="url(#mask0)">
<rect x="0.00402832" y="0.500977" width="12.074" height="12.074" fill="#00AC4E"/>
</g>
</svg>
